<svg xmlns="http://www.w3.org/2000/svg" xmlns:xlink="http://www.w3.org/1999/xlink" width="500" zoomAndPan="magnify" viewBox="0 0 375 374.999991" height="500" preserveAspectRatio="xMidYMid meet" version="1.0"><defs><clipPath id="2b67ba25ca"><path d="M 38 147 L 87.777344 147 L 87.777344 296.714844 L 38 296.714844 Z M 38 147 " clip-rule="nonzero"/></clipPath><clipPath id="3a1a659137"><path d="M 196 147 L 245 147 L 245 296.714844 L 196 296.714844 Z M 196 147 " clip-rule="nonzero"/></clipPath><clipPath id="50b562b48a"><path d="M 97.527344 197 L 136.539062 197 L 136.539062 296.714844 L 97.527344 296.714844 Z M 97.527344 197 " clip-rule="nonzero"/></clipPath><clipPath id="b3d8be0525"><path d="M 265 78.265625 L 374.765625 78.265625 L 374.765625 119 L 265 119 Z M 265 78.265625 " clip-rule="nonzero"/></clipPath></defs><path fill="#ffffff" d="M 65.300781 132.210938 C 73.679688 132.210938 81.433594 135.980469 86.578125 142.566406 C 86.765625 142.8125 86.898438 143.042969 87.070312 143.289062 L 119.796875 143.289062 L 119.949219 143.117188 L 125.605469 137.503906 L 140.179688 123.035156 C 141.644531 121.589844 143.628906 120.769531 145.683594 120.769531 L 179.570312 120.769531 L 196.410156 104.058594 L 14.878906 104.058594 C 6.667969 104.058594 0 110.664062 0 118.773438 L 0 143.289062 L 43.5625 143.289062 C 48.515625 136.515625 56.460938 132.210938 65.300781 132.210938 " fill-opacity="1" fill-rule="nonzero"/><path fill="#ffffff" d="M 83.394531 197.445312 L 78.117188 218.441406 L 87.433594 259.179688 L 96.75 218.441406 L 91.472656 197.445312 L 83.394531 197.445312 " fill-opacity="1" fill-rule="nonzero"/><g clip-path="url(#2b67ba25ca)"><path fill="#ffffff" d="M 80.917969 287.617188 L 79.472656 285.445312 L 73.03125 285.445312 C 68.726562 285.445312 65.242188 281.964844 65.242188 277.640625 C 65.242188 273.339844 68.726562 269.839844 73.03125 269.839844 L 73.871094 269.839844 L 62.480469 220.078125 C 62.195312 218.878906 62.214844 217.644531 62.519531 216.445312 L 67.300781 197.445312 L 71.222656 181.835938 L 76.289062 161.714844 C 76.519531 160.785156 76.613281 159.832031 76.59375 158.878906 C 76.574219 156.480469 75.792969 154.121094 74.269531 152.160156 C 73.945312 151.761719 73.566406 151.4375 73.203125 151.09375 C 71.109375 149.019531 68.328125 147.800781 65.300781 147.800781 C 62.214844 147.800781 59.394531 149.058594 57.335938 151.09375 C 55.90625 152.503906 54.820312 154.253906 54.308594 156.308594 L 53.660156 158.878906 L 47.886719 181.835938 L 43.964844 197.445312 L 38.667969 218.441406 L 56.59375 296.734375 L 87.015625 296.734375 L 86.898438 296.527344 L 80.917969 287.617188 " fill-opacity="1" fill-rule="nonzero"/></g><path fill="#ffffff" d="M 0 167.105469 C 0 175.230469 6.667969 181.835938 14.878906 181.835938 L 31.792969 181.835938 L 37.5625 158.878906 L 0 158.878906 L 0 167.105469 " fill-opacity="1" fill-rule="nonzero"/><g clip-path="url(#3a1a659137)"><path fill="#ffffff" d="M 230.792969 285.445312 C 226.488281 285.445312 222.984375 281.964844 222.984375 277.640625 C 222.984375 273.339844 226.488281 269.839844 230.792969 269.839844 L 231.613281 269.839844 L 220.222656 220.078125 C 219.957031 218.878906 219.957031 217.644531 220.261719 216.445312 L 225.042969 197.445312 L 227.003906 189.640625 L 228.984375 181.835938 L 234.050781 161.714844 C 234.890625 158.367188 234.144531 154.882812 232.011719 152.160156 C 229.859375 149.402344 226.585938 147.800781 223.058594 147.800781 C 217.839844 147.800781 213.328125 151.304688 212.070312 156.308594 L 205.628906 181.835938 L 201.707031 197.445312 L 196.429688 218.441406 L 214.335938 296.734375 L 244.777344 296.734375 L 237.230469 285.445312 L 230.792969 285.445312 " fill-opacity="1" fill-rule="nonzero"/></g><g clip-path="url(#50b562b48a)"><path fill="#ffffff" d="M 107.566406 197.445312 L 112.347656 216.445312 C 112.652344 217.644531 112.671875 218.878906 112.386719 220.078125 L 97.644531 284.535156 L 105.816406 296.734375 L 118.273438 296.734375 L 136.199219 218.441406 L 130.902344 197.445312 L 107.566406 197.445312 " fill-opacity="1" fill-rule="nonzero"/></g><g clip-path="url(#b3d8be0525)"><path fill="#ffffff" d="M 373.753906 80.226562 C 372.820312 78.988281 371.375 78.285156 369.8125 78.285156 L 279.425781 78.285156 C 277.214844 78.285156 275.253906 79.730469 274.664062 81.84375 L 272.816406 88.449219 L 268.433594 104.058594 L 265.976562 112.851562 C 265.425781 114.832031 266.242188 116.316406 266.777344 117.039062 C 267.710938 118.277344 269.15625 118.980469 270.738281 118.980469 L 361.125 118.980469 C 363.335938 118.980469 365.296875 117.515625 365.867188 115.421875 L 374.554688 84.414062 C 375.125 82.433594 374.304688 80.929688 373.753906 80.226562 " fill-opacity="1" fill-rule="nonzero"/></g><path fill="#ffffff" d="M 254.339844 126.464844 C 250.433594 121.324219 249.195312 114.832031 250.949219 108.644531 L 252.222656 104.058594 L 218.566406 104.058594 L 188.296875 134.097656 C 186.847656 135.5625 184.867188 136.363281 182.792969 136.363281 L 148.902344 136.363281 L 134.921875 150.257812 L 128.65625 156.480469 L 128.519531 156.613281 C 127.054688 158.082031 125.074219 158.878906 123.015625 158.878906 L 92.214844 158.878906 C 92.234375 161.050781 91.984375 163.238281 91.453125 165.390625 C 91.453125 165.429688 91.453125 165.484375 91.433594 165.523438 L 87.433594 181.398438 L 87.320312 181.835938 L 189.535156 181.835938 L 196.925781 152.503906 C 199.933594 140.550781 210.679688 132.210938 223.058594 132.210938 C 231.441406 132.210938 239.195312 135.980469 244.335938 142.566406 C 246.871094 145.839844 248.585938 149.554688 249.421875 153.4375 C 250.261719 157.375 250.203125 161.488281 249.175781 165.523438 L 245.082031 181.835938 L 315.902344 181.835938 C 324.09375 181.835938 330.761719 175.230469 330.761719 167.105469 L 330.761719 134.589844 L 270.738281 134.589844 C 264.222656 134.589844 258.261719 131.621094 254.339844 126.464844 " fill-opacity="1" fill-rule="nonzero"/><path fill="#ffffff" d="M 309.179688 260.433594 C 304.875 260.433594 301.371094 256.949219 301.371094 252.628906 C 301.371094 248.328125 304.875 244.84375 309.179688 244.84375 L 311.292969 244.84375 L 312 220.308594 L 298.09375 197.445312 L 271.652344 197.445312 L 288.835938 225.695312 C 289.5 226.78125 289.882812 228.035156 289.960938 229.3125 L 292.246094 270.902344 L 318.550781 270.902344 L 313.828125 260.433594 L 309.179688 260.433594 " fill-opacity="1" fill-rule="nonzero"/></svg>